<svg xmlns="http://www.w3.org/2000/svg" viewBox="0 0 64 64" width="64" height="64">
  <!-- Face/profile with beauty flame design -->
  <defs>
    <style>
      .logo-main { fill: #1D1D1D; }
    </style>
  </defs>
  
  <!-- Main logo shape - stylized face with flame -->
  <g class="logo-main">
    <!-- Outer circular frame -->
    <circle cx="32" cy="32" r="30" fill="none" stroke="#1D1D1D" stroke-width="1.5" opacity="0.3"/>
    
    <!-- Profile face outline -->
    <path d="M 28 18 Q 22 22 22 32 Q 22 42 28 45 L 28 48 Q 20 44 20 32 Q 20 20 28 16 Z" fill="#1D1D1D"/>
    
    <!-- Flame/hair design - upward sweep -->
    <path d="M 28 18 Q 32 14 36 18 Q 38 22 36 28 Q 34 25 32 26 Q 30 25 28 28 Q 26 22 28 18 Z" fill="#1D1D1D"/>
    
    <!-- Additional flame accent -->
    <path d="M 32 16 Q 35 15 37 18 Q 38 20 37 24 Q 35 22 33 23 Q 31 22 30 24 Q 29 20 32 16 Z" fill="#1D1D1D"/>
    
    <!-- Curved accent at bottom right -->
    <path d="M 36 36 Q 42 35 44 40 Q 44 44 40 45 Q 38 43 38 40 Z" fill="#1D1D1D" opacity="0.8"/>
  </g>
</svg>
